<?xml version="1.0" standalone="no"?>
<!DOCTYPE svg PUBLIC "-//W3C//DTD SVG 1.1//EN" "http://www.w3.org/Graphics/SVG/1.1/DTD/svg11.dtd" >
<svg xmlns="http://www.w3.org/2000/svg">
<metadata></metadata>
<defs>
<font id="superscriptregular" horiz-adv-x="1433" >
<font-face units-per-em="2048" ascent="1638" descent="-410" />
<missing-glyph horiz-adv-x="1024" />
<glyph horiz-adv-x="2048" />
<glyph horiz-adv-x="2048" />
<glyph unicode="&#xd;" horiz-adv-x="1024" />
<glyph unicode=" "  horiz-adv-x="1024" />
<glyph unicode="&#x09;" horiz-adv-x="1024" />
<glyph unicode="&#xa0;" horiz-adv-x="1024" />
<glyph unicode="!" horiz-adv-x="614" d="M0 0v205h410v-205h-410zM0 410v1024h410v-1024h-410z" />
<glyph unicode="&#x22;" horiz-adv-x="1228" d="M0 1229v409h410v-204h-205v-205h-205zM614 1229v409h410v-204h-205v-205h-205z" />
<glyph unicode="&#x26;" horiz-adv-x="1228" d="M0 205v409h184v205h-184v410h184v205h635v-205h205v-410h-205v-205h410v-204h-205v-205h205v-205h-205v205h-205v-205h-635v205h-184zM410 205h409v409h-409v-409zM410 819h409v410h-409v-410z" />
<glyph unicode="'" horiz-adv-x="614" d="M0 1229v409h410v-204h-205v-205h-205z" />
<glyph unicode="(" horiz-adv-x="819" d="M0 0v1434h205v204h409v-204h-204v-1434h204v-205h-409v205h-205z" />
<glyph unicode=")" horiz-adv-x="819" d="M0 0h205v1434h-205v204h410v-204h204v-1434h-204v-205h-410v205z" />
<glyph unicode="+" horiz-adv-x="1024" d="M0 614v205h205v205h409v-205h205v-205h-205v-204h-409v204h-205z" />
<glyph unicode="," horiz-adv-x="819" d="M0 0h205v205h409v-205h-204v-205h-410v205zM0 -205z" />
<glyph unicode="-" horiz-adv-x="1024" d="M0 614v205h819v-205h-819z" />
<glyph unicode="." horiz-adv-x="614" d="M0 0v205h410v-205h-410z" />
<glyph unicode="/" horiz-adv-x="2048" d="M0 0v205h205v409h205v410h204v205h410v-205h-205v-410h-205v-409h-204v-205h-410z" />
<glyph unicode="0" horiz-adv-x="1228" d="M0 205v1024h205v205h635v-205h184v-1024h-184v-205h-635v205h-205zM205 205h409v1024h-409v-1024z" />
<glyph unicode="1" horiz-adv-x="1228" d="M0 819v410h205v205h409v-205h205v-1024h205v-205h-819v205h205v819h-205v-205h-205z" />
<glyph unicode="2" d="M0 0v614l614 615h-409v-205h-205v205h205v205h635v-205h184v-205l-410 -410v-409h410v205h205v-205h-205v-205h-635v205h-184v-205h-205z" />
<glyph unicode="3" horiz-adv-x="1228" d="M0 205v205h205v-205h409v409h-409v205h409v410h-409v-205h-205v205h205v205h635v-205h184v-410h-184v-205h184v-409h-184v-205h-635v205h-205z" />
<glyph unicode="4" d="M0 819v615h410v-615h409v615h410v-205h-205v-1024h205v-205h-615v205h205v409h-614v205h-205z" />
<glyph unicode="5" horiz-adv-x="1228" d="M0 205v205h205v-205h409v430h-614v799h1024v-205h-614v-205h307l307 -307v-512h-184v-205h-635v205h-205z" />
<glyph unicode="6" horiz-adv-x="1228" d="M0 205v1024h205v205h635v-205h-430v-205h430v-205h184v-614h-184v-205h-635v205h-205zM410 205h204v614h-204v-614z" />
<glyph unicode="7" horiz-adv-x="1228" d="M0 614v205h410v410h-410v205h1024v-615h-205v-205h205v-204h-410v-410h-409v614h-205z" />
<glyph unicode="8" horiz-adv-x="1228" d="M0 205v409h184v205h-184v410h184v205h635v-205h205v-410h-205v-205h205v-409h-205v-205h-635v205h-184zM410 205h409v409h-409v-409zM410 819h409v410h-409v-410z" />
<glyph unicode="9" horiz-adv-x="1228" d="M0 819v410h205v205h635v-205h184v-1024h-184v-205h-635v205h409v409h-409v205h-205zM410 819h204v410h-204v-410z" />
<glyph unicode=":" horiz-adv-x="614" d="M0 0v205h410v-205h-410zM0 410v204h410v-204h-410z" />
<glyph unicode=";" horiz-adv-x="614" d="M-205 0h205v205h410v-205h-205v-205h-410v205zM0 410v204h410v-204h-410z" />
<glyph unicode="&#x3c;" horiz-adv-x="1024" d="M0 614v205h205v410h205v205h409v-205h-205v-410h-204v-205h204v-409h205v-205h-409v205h-205v409h-205z" />
<glyph unicode="=" horiz-adv-x="1024" d="M0 205v205h819v-205h-819zM0 614v205h819v-205h-819z" />
<glyph unicode="&#x3e;" horiz-adv-x="1024" d="M0 0v205h205v409h205v205h-205v410h-205v205h410v-205h204v-410h205v-205h-205v-409h-204v-205h-410z" />
<glyph unicode="?" horiz-adv-x="1228" d="M0 1024v205h205v205h635v-205h184v-410l-410 -409h-409v204l409 410v205h-409v-205h-205zM205 0v205h409v-205h-409z" />
<glyph unicode="@" horiz-adv-x="1843" d="M0 205v614h205v205h205v205h204v205h820v-205h204v-205h205v-819h-205v-205h-1024v-205h1024v-205h-1024v205h-204v205h-205v205h-205zM205 205h205v614h-205v-614zM410 0h204v205h-204v-205zM410 819h204v205h-204v-205zM614 1024h820v205h-820v-205zM819 205h205v614 h-205v-614zM1434 205h204v819h-204v-819z" />
<glyph unicode="A" horiz-adv-x="1638" d="M-20 0v205h225v409h205v410h204v410h820v-1229h204v-205h-409v614h-410v-204h-205v-410h-634zM819 819h410v410h-205v-205h-205v-205z" />
<glyph unicode="B" d="M0 0v205h205v1024h-205v205h1024v-205h205v-410h-205v-205h205v-204h205v-205h-410v-205h-1024zM614 205h410v409h-410v-409zM614 819h410v410h-410v-410z" />
<glyph unicode="C" horiz-adv-x="1024" d="M0 205v1024h184v205h635v-205h205v-205h-205v205h-409v-1024h409v205h205v-205h-205v-205h-635v205h-184z" />
<glyph unicode="D" d="M0 0v205h205v1024h-199v205h1018v-205h205v-819h205v-205h-410v-205h-1024zM614 205h410v1024h-410v-1024z" />
<glyph unicode="E" horiz-adv-x="1228" d="M0 0v205h205v1024h-205v205h1024v-205h205v-205h-205v205h-410v-410h410v-205h-410v-409h410v205h205v-205h-205v-205h-1024z" />
<glyph unicode="F" horiz-adv-x="1228" d="M0 0v205h205v1024h-205v205h1024v-205h205v-205h-410v205h-205v-410h615v-205h-615v-409h205v-205h-819z" />
<glyph unicode="G" horiz-adv-x="1228" d="M0 205v1024h184v205h635v-205h205v-205h-205v205h-409v-1024h409v409h-205v205h615v-205h-205v-614h-840v205h-184z" />
<glyph unicode="H" d="M0 0v205h205v1024h-205v205h614v-615h205v410h205v205h410v-205h-205v-1024h205v-205h-615v614h-205v-409h-204v-205h-410z" />
<glyph unicode="I" horiz-adv-x="819" d="M0 0v205h205v1024h-205v205h819v-205h-205v-1024h205v-205h-819z" />
<glyph unicode="J" horiz-adv-x="1024" d="M0 205v205h205v-205h205v1024h-410v205h635v-205h184v-819h225v-205h-225v-205h-614v205h-205z" />
<glyph unicode="K" horiz-adv-x="1638" d="M-20 0v205h225v1024h-225v205h634v-615h205v410h205v205h410v-205h-205v-410h-205v-205h205v-409h205v205h204v-205h-204v-205h-410v205h-205v409h-205v-614h-634z" />
<glyph unicode="L" horiz-adv-x="1228" d="M0 0v205h205v1024h184v205h635v-205h205v-205h-205v205h-410v-1024h410v205h205v-205h-205v-205h-1024z" />
<glyph unicode="M" horiz-adv-x="1843" d="M0 0v205h205v1024h-205v205h410v-205h204v-410h205v205h205v205h205v205h205v-1229h204v205h205v-205h-205v-205h-614v635h-205v-225h-205v225h-204v-430h-205v-205h-205z" />
<glyph unicode="N" d="M0 0v205h205v1024h-205v205h410v-205h204v-205h205v-205h205v615h410v-205h-205v-1024h205v-205h-410v205h-205v205h-205v-205h-204v-205h-410z" />
<glyph unicode="O" horiz-adv-x="1228" d="M0 205v1024h184v205h840v-205h205v-205h-205v-819h-205v-205h-635v205h-184zM410 205h409v819h-205v205h-204v-1024z" />
<glyph unicode="P" horiz-adv-x="1228" d="M-20 0v205h225v1024h-225v205h1044v-205h205v-615h-205v-204h-410v-410h-634zM614 614h205v615h-205v-615z" />
<glyph unicode="Q" horiz-adv-x="1228" d="M0 205v1024h184v205h635v-205h205v-1024h-205v-205h410v-205h-410v205h-635v205h-184zM410 205h204v205h205v819h-409v-1024z" />
<glyph unicode="R" d="M-20 0v205h225v1024h-225v205h1044v-205h205v-410h-205v-205h205v-409h225v-205h-635v614h-205v-614h-634zM614 819h205v410h-205v-410z" />
<glyph unicode="S" horiz-adv-x="1228" d="M0 205v205h205v-205h409v205l-614 614v205h205v205h614v-205h205v-205h-205v205h-409l614 -615v-204h205v-205h-410v-205h-614v205h-205z" />
<glyph unicode="T" d="M0 1024v205h205v205h1229v-205h225v-205h-430v205h-185v-1024h185v-205h-819v205h184v1024h-164v-205h-430z" />
<glyph unicode="U" horiz-adv-x="1638" d="M-20 1229v205h634v-1229h205v1229h410v-1229h205v205h204v-205h-204v-205h-410v205h-205v-205h-409v205h-205v1024h-225z" />
<glyph unicode="V" d="M-20 1229v205h634v-1229h410v819h-205v410h410v-205h205v205h204v-205h-204v-205h-205v-819h-205v-205h-635v205h-184v1024h-225z" />
<glyph unicode="W" horiz-adv-x="2048" d="M-20 1229v205h634v-1229h205v1229h410v-1229h409v819h-204v410h409v-205h205v205h205v-205h-205v-205h-205v-819h-205v-205h-614v205h-205v-205h-409v205h-205v1024h-225z" />
<glyph unicode="X" d="M0 0v205h184v205h226v819h-410v205h635v-205h184v205h410v-205h-185v-225h-225v-799h410v205h205v-205h-205v-205h-594v225h-225v-225h-410z" />
<glyph unicode="Y" d="M0 1229v205h614v-820h205v820h410v-820h205v-204h-205v-205h-185v-205h-634v205h-205v205h205v204h-205v615h-205zM410 205h409v205h-409v-205z" />
<glyph unicode="Z" d="M0 0v205h205v205h205v409h184v410h-594v205h1229v-615h-185v-409h-204v-205h389v205h205v-205h-205v-205h-635v205h-184v-205h-410z" />
<glyph unicode="[" horiz-adv-x="819" d="M0 -205v1843h614v-204h-204v-1434h204v-205h-614z" />
<glyph unicode="\" horiz-adv-x="2048" d="M0 1024v205h410v-205h204v-410h205v-409h205v-205h-410v205h-204v409h-205v410h-205z" />
<glyph unicode="]" horiz-adv-x="819" d="M0 0h205v1434h-205v204h614v-1843h-614v205z" />
<glyph unicode="_" horiz-adv-x="819" d="M0 0v205h819v-205h-819z" />
<glyph unicode="`" horiz-adv-x="2048" d="M2048 0v205h205v-205h-205z" />
<glyph unicode="a" d="M0 205v614h205v205h819v-819h205v205h205v-205h-205v-205h-1024v205h-205zM410 205h204v614h-204v-614z" />
<glyph unicode="b" d="M0 0v1434h410v-410h409v-205h205v-409h205v204h205v-204h-205v-205h-410v-205h-819zM410 205h204v614h-204v-614z" />
<glyph unicode="c" horiz-adv-x="1024" d="M0 205v614h184v205h635v-205h-409v-614h409v205h205v-205h-205v-205h-635v205h-184z" />
<glyph unicode="d" d="M0 205v614h205v205h409v410h410v-1229h205v205h205v-205h-205v-205h-1024v205h-205zM410 205h204v614h-204v-614z" />
<glyph unicode="e" horiz-adv-x="1228" d="M0 205v614h184v205h635v-614h-409v-205h614v205h205v-205h-205v-205h-840v205h-184zM410 614h204v205h-204v-205z" />
<glyph unicode="f" horiz-adv-x="1024" d="M0 -410v1639h205v205h409v-205h205v-615h-205v-204h-204v-205h409v205h205v-205h-205v-205h-409v-410h-410zM410 614h204v615h-204v-615z" />
<glyph unicode="g" d="M0 205v614h205v205h819v-819h205v205h205v-205h-205v-205h-205v-205h-205v-205h-409v205h204v205h-409v205h-205zM410 205h204v614h-204v-614z" />
<glyph unicode="h" d="M0 0v1434h410v-410h409v-205h205v-614h205v205h205v-205h-205v-205h-615v819h-204v-819h-410z" />
<glyph unicode="i" horiz-adv-x="819" d="M0 0v1024h410v-819h204v205h205v-205h-205v-205h-614zM0 1229v205h410v-205h-410z" />
<glyph unicode="j" horiz-adv-x="819" d="M-205 -205h205v1229h410v-819h204v205h205v-205h-205v-205h-204v-205h-205v-205h-410v205zM0 1229v205h410v-205h-410z" />
<glyph unicode="k" d="M0 0v1434h410v-615h204v205h410v-205h-205v-205h205v-409h205v205h205v-205h-205v-205h-410v205h-205v409h-204v-614h-410z" />
<glyph unicode="l" horiz-adv-x="1024" d="M0 205v1024h205v205h409v-205h205v-615h-205v-204h-204v-205h409v205h205v-205h-205v-205h-614v205h-205zM410 614h204v615h-204v-615z" />
<glyph unicode="m" horiz-adv-x="2048" d="M0 0v1024h1434v-205h204v-614h205v205h205v-205h-205v-205h-614v819h-205v-819h-410v819h-204v-819h-410z" />
<glyph unicode="n" d="M0 0v1024h819v-205h205v-614h205v205h205v-205h-205v-205h-615v819h-204v-819h-410z" />
<glyph unicode="o" d="M0 205v614h205v205h819v-205h205v205h205v-205h-205v-205h-205v-409h-184v-205h-635v205h-205zM410 205h204v614h-204v-614z" />
<glyph unicode="p" d="M0 -410v1229h205v205h635v-205h184v-409h205v204h205v-204h-205v-205h-389v-205h-430v-410h-410zM410 205h204v614h-204v-614z" />
<glyph unicode="q" d="M0 205v614h205v205h819v-819h205v205h205v-205h-205v-205h-205v-410h-410v410h-409v205h-205zM410 205h204v614h-204v-614z" />
<glyph unicode="r" horiz-adv-x="1024" d="M0 0v1024h635v-205h184v205h205v-205h-205v-205h-409v-614h-410z" />
<glyph unicode="s" horiz-adv-x="1228" d="M0 205v205h205v204h-205v205h205v205h819v-205h-389v-205h205v-204h389v-205h-205v-205h-819v205h-205zM205 205h205v205h-205v-205z" />
<glyph unicode="t" horiz-adv-x="819" d="M0 205v1229h410v-410h204v-205h-204v-614h204v205h205v-205h-205v-205h-409v205h-205z" />
<glyph unicode="u" d="M0 205v819h410v-819h204v819h410v-819h205v205h205v-205h-205v-205h-1024v205h-205z" />
<glyph unicode="v" d="M0 205v819h410v-819h409v409h-205v410h410v-205h205v205h205v-205h-205v-205h-205v-409h-205v-205h-635v205h-184z" />
<glyph unicode="w" horiz-adv-x="2048" d="M0 205v819h410v-819h204v819h410v-819h410v409h-205v410h409v-205h205v205h205v-205h-205v-205h-205v-409h-204v-205h-635v205h-185v-205h-409v205h-205z" />
<glyph unicode="x" d="M0 0v205h410v614h-410v205h635v-205h184v205h410v-205h-185v-205h-225v-409h410v205h205v-205h-205v-205h-1229z" />
<glyph unicode="y" d="M0 205v819h410v-819h204v819h410v-819h205v205h205v-205h-205v-205h-205v-205h-205v-205h-409v205h204v205h-409v205h-205z" />
<glyph unicode="z" horiz-adv-x="1228" d="M0 0v410h205v204h184v205h-389v205h840v-205h184v-205h-184v-204h-205v-205h389v205h205v-205h-205v-205h-635v205h-184v-205h-205z" />
<glyph unicode="{" horiz-adv-x="1024" d="M0 614v205h205v410h205v205h409v-205h-205v-410h-204v-205h204v-409h205v-205h-409v205h-205v409h-205z" />
<glyph unicode="|" horiz-adv-x="614" d="M0 -205v1843h410v-1843h-410z" />
<glyph unicode="}" horiz-adv-x="1024" d="M0 0v205h205v409h205v205h-205v410h-205v205h410v-205h204v-410h205v-205h-205v-409h-204v-205h-410z" />
<glyph unicode="&#xad;" horiz-adv-x="1024" d="M0 614v205h819v-205h-819z" />
<glyph unicode="&#xc4;" horiz-adv-x="1638" d="M-20 0v205h225v205h205v409h204v410h820v-1024h204v-205h-409v410h-410v-205h-205v-205h-634zM410 1434v204h409v-204h-409zM819 614h410v410h-205v-205h-205v-205zM1024 1434v204h410v-204h-410z" />
<glyph unicode="&#xd6;" horiz-adv-x="1228" d="M0 205v819h184v205h840v-205h205v-205h-205v-614h-205v-205h-635v205h-184zM0 1434v204h410v-204h-410zM410 205h409v614h-205v205h-204v-819zM614 1434v204h410v-204h-410z" />
<glyph unicode="&#xdc;" horiz-adv-x="1638" d="M0 1024v205h614v-1024h205v1024h410v-1024h205v205h204v-205h-204v-205h-410v205h-205v-205h-430v205h-184v819h-205zM205 1434v204h409v-204h-409zM819 1434v204h410v-204h-410z" />
<glyph unicode="&#xdf;" horiz-adv-x="1228" d="M0 0v1229h205v205h614v-205h205v-410h-205v-205h205v-204h205v-205h-410v-205h-409v205h204v409h-204v205h204v410h-409v-1229h-205z" />
<glyph unicode="&#xe4;" d="M0 205v614h205v205h819v-819h205v205h205v-205h-205v-205h-1024v205h-205zM0 1229v205h410v-205h-410zM410 205h204v614h-204v-614zM614 1229v205h410v-205h-410z" />
<glyph unicode="&#xf6;" d="M0 205v614h205v205h819v-205h205v205h205v-205h-205v-205h-205v-409h-205v-205h-614v205h-205zM0 1229v205h410v-205h-410zM410 205h204v614h-204v-614zM614 1229v205h410v-205h-410z" />
<glyph unicode="&#xfc;" d="M0 205v819h410v-819h204v819h410v-819h205v205h205v-205h-205v-205h-1024v205h-205zM0 1229v205h410v-205h-410zM614 1229v205h410v-205h-410z" />
<glyph unicode="&#x2000;" horiz-adv-x="819" />
<glyph unicode="&#x2001;" horiz-adv-x="1638" />
<glyph unicode="&#x2002;" horiz-adv-x="819" />
<glyph unicode="&#x2003;" horiz-adv-x="1638" />
<glyph unicode="&#x2004;" horiz-adv-x="546" />
<glyph unicode="&#x2005;" horiz-adv-x="409" />
<glyph unicode="&#x2006;" horiz-adv-x="273" />
<glyph unicode="&#x2007;" horiz-adv-x="273" />
<glyph unicode="&#x2008;" horiz-adv-x="204" />
<glyph unicode="&#x2009;" horiz-adv-x="327" />
<glyph unicode="&#x200a;" horiz-adv-x="91" />
<glyph unicode="&#x2010;" horiz-adv-x="1024" d="M0 614v205h819v-205h-819z" />
<glyph unicode="&#x2011;" horiz-adv-x="1024" d="M0 614v205h819v-205h-819z" />
<glyph unicode="&#x2012;" horiz-adv-x="1024" d="M0 614v205h819v-205h-819z" />
<glyph unicode="&#x2013;" horiz-adv-x="1229" d="M0 614v205h1024v-205h-1024z" />
<glyph unicode="&#x2014;" horiz-adv-x="2253" d="M0 614v205h2048v-205h-2048z" />
<glyph unicode="&#x202f;" horiz-adv-x="327" />
<glyph unicode="&#x205f;" horiz-adv-x="409" />
<glyph unicode="&#x25fc;" horiz-adv-x="1024" d="M0 0v1024h1024v-1024h-1024z" />
</font>
</defs>
</svg>
